<?xml version="1.0" standalone="no"?>
<!DOCTYPE svg PUBLIC "-//W3C//DTD SVG 20010904//EN"
 "http://www.w3.org/TR/2001/REC-SVG-20010904/DTD/svg10.dtd">
<svg version="1.0" xmlns="http://www.w3.org/2000/svg"
 width="260.000000pt" height="260.000000pt" viewBox="0 0 260.000000 260.000000"
 preserveAspectRatio="xMidYMid meet">
<metadata>
Created by potrace 1.11, written by Peter Selinger 2001-2013
</metadata>
<g transform="translate(0.000000,260.000000) scale(0.100000,-0.100000)"
fill="#000000" stroke="none">
<path d="M280 2581 c0 -9 -6 -23 -12 -29 -10 -10 -10 -15 2 -22 13 -8 12 -10
-2 -10 -16 0 -23 -17 -19 -42 0 -5 -3 -8 -8 -8 -11 0 -22 -40 -15 -52 3 -5 14
2 24 14 11 13 19 17 20 10 0 -7 -15 -29 -32 -48 -51 -53 -58 -62 -58 -75 0 -6
-6 -25 -14 -42 -31 -74 -36 -88 -26 -82 14 9 12 -18 -4 -50 -9 -17 -16 -22
-19 -13 -2 7 -8 -5 -12 -27 -4 -22 -12 -45 -17 -51 -5 -8 -3 -14 7 -18 8 -3
15 -1 15 4 0 6 5 10 11 10 7 0 9 -10 4 -27 -4 -16 -9 -41 -11 -58 -8 -59 -43
-157 -54 -150 -4 3 -10 -2 -13 -10 -4 -9 -1 -12 9 -8 8 3 14 -1 14 -11 0 -9
-5 -16 -11 -16 -6 0 -9 -9 -6 -20 3 -11 1 -20 -4 -20 -5 0 -9 10 -10 23 -1 21
-1 21 -9 -3 -4 -14 -8 -185 -9 -381 l-1 -356 29 -64 c16 -35 32 -80 36 -99 4
-19 18 -56 30 -82 14 -30 23 -65 23 -93 -1 -49 -11 -57 -29 -23 -11 21 -12 21
-25 3 -8 -10 -14 -14 -14 -8 0 6 -11 8 -25 5 -24 -4 -25 -7 -26 -86 -1 -44 -4
-92 -7 -106 -3 -14 -6 -123 -8 -242 l-3 -218 1185 0 1185 0 -6 41 c-4 28 -3
39 4 34 6 -3 11 -13 11 -21 0 -8 5 -12 11 -8 6 3 8 16 5 28 -11 38 -37 259
-40 346 -5 114 -6 119 -17 125 -5 4 -7 11 -3 16 3 5 10 6 16 3 5 -4 4 4 -2 17
-9 16 -10 24 -2 27 7 2 9 15 5 32 -3 16 -1 42 5 58 6 17 6 35 1 44 -5 9 -4 71
3 149 6 74 11 153 12 177 0 42 8 50 35 33 12 -8 14 -44 13 -201 -1 -105 2
-189 6 -186 9 6 29 96 30 136 0 14 5 67 11 118 7 60 7 101 1 118 -14 35 -13
44 6 44 13 0 15 10 10 68 -3 37 -6 112 -6 167 -1 63 -4 93 -10 80 -6 -15 -8
-10 -8 21 0 22 -3 55 -7 72 -6 31 8 46 18 20 3 -7 6 -3 6 9 1 12 -3 25 -9 28
-6 4 -6 13 -1 23 5 9 14 30 21 47 11 27 13 28 25 12 9 -13 14 -14 17 -5 9 23
-1 193 -11 196 -6 2 -9 9 -7 15 1 7 1 9 -1 5 -10 -17 -23 -7 -23 16 0 14 -4
28 -10 31 -6 4 -10 -5 -10 -20 0 -15 -4 -23 -10 -20 -5 3 -9 16 -9 28 1 50
-14 177 -22 177 -15 0 -21 41 -8 57 11 13 10 17 -6 29 -16 12 -17 16 -6 23 10
6 10 10 1 16 -6 4 -9 14 -6 22 4 9 1 22 -6 31 -11 13 -10 14 12 10 14 -3 34
-9 45 -13 13 -5 17 -5 10 2 -5 5 -25 16 -44 23 -39 16 -84 57 -76 71 4 5 -1 9
-9 9 -21 0 -21 -36 0 -44 10 -4 14 -12 10 -22 -4 -12 -1 -14 14 -9 11 4 20 2
20 -4 0 -6 -3 -11 -7 -11 -7 0 -9 -50 -3 -67 2 -5 4 -12 4 -18 1 -5 8 -20 15
-33 7 -13 10 -30 7 -37 -3 -8 2 -22 11 -31 14 -13 14 -17 2 -25 -9 -6 -11 -11
-3 -16 6 -5 14 -16 17 -27 7 -16 4 -18 -23 -13 -39 8 -39 -4 0 -21 17 -8 30
-21 29 -30 0 -11 -2 -12 -6 -4 -2 6 -8 10 -13 7 -5 -3 -16 2 -24 11 -13 13
-20 14 -31 4 -17 -14 -20 -50 -5 -50 6 0 10 7 8 16 -2 10 3 19 11 22 9 3 11
-1 6 -17 -4 -12 -2 -28 5 -36 6 -8 10 -22 7 -32 -3 -15 -6 -13 -15 10 -6 15
-17 27 -23 27 -7 0 -18 8 -25 18 -11 14 -12 9 -9 -38 4 -50 3 -53 -10 -36 -8
11 -15 28 -15 39 0 10 -9 21 -20 24 -12 3 -20 14 -20 27 0 14 -6 23 -15 23 -8
0 -15 -3 -16 -6 -4 -40 -9 -64 -14 -81 -3 -11 -3 -25 1 -32 4 -7 9 -35 10 -64
1 -28 10 -69 19 -90 9 -21 22 -77 29 -123 10 -74 10 -95 -6 -165 -9 -45 -20
-115 -23 -156 -7 -82 -25 -160 -37 -160 -4 0 -8 -4 -8 -9 0 -5 8 -7 19 -4 37
9 36 -18 -10 -257 -23 -118 -109 -281 -188 -356 -17 -16 -31 -34 -31 -40 0
-18 -27 -38 -32 -24 -3 9 -11 8 -31 -1 -15 -7 -30 -9 -35 -4 -4 4 -1 10 6 12
18 7 15 21 -5 19 -13 -1 -17 5 -16 22 2 12 -3 23 -10 23 -6 1 -18 2 -26 3 -8
0 -16 7 -19 15 -3 10 0 12 12 8 11 -5 16 -1 16 13 0 13 5 18 15 14 8 -4 15 -1
15 5 0 18 -39 12 -60 -9 -11 -11 -17 -26 -14 -35 10 -25 -35 -56 -76 -52 -22
3 -40 -1 -48 -9 -17 -18 -27 -18 -46 2 -9 8 -20 12 -26 9 -5 -3 -10 -2 -10 4
0 5 4 13 10 16 24 15 5 22 -55 20 -36 -2 -65 1 -65 5 0 10 30 34 65 50 44 21
85 50 82 58 -5 17 42 60 73 67 28 6 36 4 52 -16 11 -15 16 -17 12 -7 -8 22 32
78 55 78 32 0 71 -39 71 -71 0 -49 17 -32 18 18 1 27 -7 66 -19 92 -11 25 -14
40 -8 34 18 -18 29 -16 29 5 0 18 -37 58 -79 83 -15 9 -26 24 -26 38 0 24 -29
51 -41 38 -4 -3 -1 -13 5 -21 7 -8 10 -19 7 -25 -6 -9 33 -63 64 -88 10 -9 12
-15 4 -20 -6 -5 -15 -21 -21 -38 -7 -21 -18 -32 -39 -37 -16 -4 -58 -15 -92
-26 -65 -19 -71 -18 -229 6 -29 5 -53 6 -53 3 0 -3 -11 -11 -25 -17 -20 -10
-25 -9 -28 5 -4 13 -5 13 -6 -2 -2 -26 -35 -17 -39 11 -2 14 2 22 12 23 32 3
36 4 36 11 1 4 7 25 14 45 7 21 12 45 11 54 -2 12 7 19 29 24 27 7 28 9 8 12
-27 5 -19 23 11 23 20 1 21 1 4 11 -10 6 -25 8 -33 5 -16 -6 -20 19 -4 29 6 3
7 17 4 31 -8 33 9 31 39 -5 34 -41 57 -43 76 -6 8 17 21 42 28 57 13 27 13 29
-14 40 -15 7 -33 19 -39 27 -9 12 -16 12 -44 -3 -37 -18 -75 -12 -66 10 3 9
-6 15 -29 20 -19 3 -33 11 -32 18 1 6 -9 11 -23 12 -50 1 -55 3 -42 16 21 21
15 47 -9 41 -21 -6 -21 -5 -4 21 9 14 22 26 27 26 5 0 7 9 3 20 -5 15 -3 18
10 14 14 -6 15 0 10 45 -4 38 -3 51 7 51 8 0 6 5 -4 11 -10 5 -18 18 -18 29 0
10 -5 20 -10 22 -6 2 -12 25 -14 53 -1 27 -8 51 -14 53 -7 2 -9 8 -6 13 3 6 0
16 -6 24 -10 12 -10 18 0 30 7 9 10 25 6 41 -5 19 -2 30 11 40 11 8 13 13 6
14 -15 0 -17 32 -4 45 6 6 7 34 2 69 -8 61 0 82 40 100 11 5 11 7 2 12 -7 3
-13 15 -13 26 0 11 5 18 13 15 6 -2 11 -10 10 -16 -2 -6 10 -11 27 -11 36 0
40 15 5 24 -14 4 -25 11 -25 16 0 6 -17 10 -37 10 -21 0 -51 7 -67 15 -30 16
-46 12 -46 -11 0 -8 -4 -14 -10 -14 -5 0 -10 7 -10 15 0 8 5 15 10 15 6 0 10
7 10 15 0 21 -13 19 -41 -6 -17 -14 -20 -22 -11 -25 15 -7 16 -24 1 -24 -6 0
-25 11 -43 25 -24 18 -35 22 -43 14 -8 -8 -20 -6 -41 10 -18 13 -37 18 -47 15
-14 -6 -16 -3 -11 12 5 16 -1 23 -29 33 -23 8 -35 19 -35 31 0 10 -4 22 -10
25 -5 3 -10 -1 -10 -10 0 -12 -5 -15 -16 -11 -22 9 -54 -11 -54 -34 0 -11 -7
-20 -15 -20 -18 0 -19 12 -3 28 9 9 8 12 -6 12 -15 0 -13 4 10 22 46 34 51 40
30 36 -10 -1 -21 3 -23 10 -3 6 2 12 10 12 10 0 13 8 9 25 -3 16 2 33 14 46
14 16 15 19 2 14 -9 -4 -18 0 -21 8 -3 9 2 17 14 20 22 6 24 20 6 39 -11 11
-10 18 1 38 l13 25 -4 -27 c-3 -19 0 -28 9 -28 8 0 14 9 14 21 0 14 5 19 14
16 8 -3 17 0 19 8 8 18 -4 27 -19 14 -20 -16 -28 9 -11 35 9 14 12 28 7 36 -5
8 -6 18 -4 22 3 4 -1 8 -9 8 -10 0 -13 -7 -10 -19 6 -23 -13 -37 -31 -22 -7 6
-16 8 -19 5 -3 -4 -14 -4 -23 0 -13 5 -15 9 -6 18 7 7 12 20 12 30 0 10 7 18
15 18 9 0 15 -9 15 -25 0 -14 5 -25 11 -25 7 0 8 7 4 18 -4 9 -9 32 -12 50
l-6 33 -248 -1 c-229 -1 -249 -3 -249 -19z m-8 -93 c-7 -7 -12 -8 -12 -2 0 14
12 26 19 19 2 -3 -1 -11 -7 -17z m335 -53 c8 -22 -6 -33 -17 -15 -13 20 -12
30 0 30 6 0 13 -7 17 -15z m-387 -120 c0 -8 -4 -15 -10 -15 -5 0 -10 7 -10 15
0 8 5 15 10 15 6 0 10 -7 10 -15z m533 -55 c-3 -11 -10 -20 -17 -20 -6 0 -17
-4 -25 -9 -12 -8 -13 -12 -1 -25 11 -14 10 -16 -4 -10 -9 3 -16 1 -16 -6 0 -6
-5 -8 -11 -4 -8 5 -8 9 1 14 8 5 6 9 -7 15 -16 6 -15 8 7 18 21 8 22 11 8 14
-10 3 -18 9 -18 14 0 12 14 11 28 -3 8 -8 17 -7 34 5 13 9 24 16 25 16 0 1 -1
-8 -4 -19z m-59 -125 c-3 -6 0 -23 5 -38 7 -17 7 -28 1 -32 -6 -4 -10 3 -10
14 0 26 -17 28 -24 4 -3 -10 -2 2 1 27 3 25 8 49 10 54 7 11 22 -14 17 -29z
m-557 -62 c-3 -3 -11 -2 -17 2 -9 6 -9 10 1 16 14 8 27 -7 16 -18z m603 -44
c-31 -23 -37 -23 -49 -1 -8 15 -4 17 32 19 l41 1 -24 -19z m1770 -190 c0 -5
-7 -9 -15 -9 -9 0 -12 6 -9 15 6 15 24 11 24 -6z m-143 -31 c-3 -7 -5 -2 -5
12 0 14 2 19 5 13 2 -7 2 -19 0 -25z m143 -47 c0 -25 -4 -38 -14 -38 -11 0
-12 6 -4 29 6 15 7 35 4 44 -3 8 -2 12 4 9 6 -3 10 -23 10 -44z m-183 -173
c-3 -8 -6 -5 -6 6 -1 11 2 17 5 13 3 -3 4 -12 1 -19z m-1834 -115 c-3 -7 -6
-13 -8 -13 -2 0 -5 6 -8 13 -3 8 1 14 8 14 7 0 11 -6 8 -14z m363 -30 c-10
-10 -19 5 -10 18 6 11 8 11 12 0 2 -7 1 -15 -2 -18z m-59 -59 c-3 -3 -12 -4
-19 -1 -8 3 -5 6 6 6 11 1 17 -2 13 -5z m-199 -24 c-7 -11 -16 -20 -20 -20 -5
0 -3 9 4 20 7 11 16 20 20 20 5 0 3 -9 -4 -20z m122 -10 c0 -5 -7 -10 -17 -10
-28 0 -7 -11 29 -15 18 -2 42 -4 53 -5 11 -1 2 -6 -20 -10 -22 -4 -41 -5 -43
-1 -1 4 -15 6 -30 5 -20 -1 -31 5 -39 22 -11 23 -10 24 28 24 21 0 39 -4 39
-10z m80 0 c0 -5 -4 -10 -10 -10 -5 0 -10 5 -10 10 0 6 5 10 10 10 6 0 10 -4
10 -10z m-170 -10 c0 -5 -4 -10 -10 -10 -5 0 -10 5 -10 10 0 6 5 10 10 10 6 0
10 -4 10 -10z m1787 -42 c-3 -8 -6 -5 -6 6 -1 11 2 17 5 13 3 -3 4 -12 1 -19z
m-1500 -14 c-9 -9 -28 6 -21 18 4 6 10 6 17 -1 6 -6 8 -13 4 -17z m-37 4 c0
-10 -82 -49 -88 -43 -10 10 43 50 66 50 12 0 22 -3 22 -7z m-110 -17 c0 -12
-29 -35 -36 -28 -11 10 5 37 21 37 8 0 15 -4 15 -9z m230 -1 c0 -5 -4 -10 -10
-10 -5 0 -10 5 -10 10 0 6 5 10 10 10 6 0 10 -4 10 -10z m1413 -25 c4 -8 2
-17 -3 -20 -6 -4 -10 3 -10 14 0 25 6 27 13 6z m-1465 -12 c17 -16 15 -33 -3
-33 -8 0 -15 -9 -15 -19 0 -10 -7 -22 -16 -25 -22 -9 -24 -8 -18 9 4 8 2 15
-4 15 -6 0 -13 14 -17 30 -4 17 -11 30 -15 30 -5 0 -7 -7 -4 -15 4 -9 0 -15
-10 -15 -19 0 -22 26 -3 34 21 9 91 2 105 -11z m1479 -45 c-3 -8 -6 -5 -6 6
-1 11 2 17 5 13 3 -3 4 -12 1 -19z m-1597 -7 c0 -5 -6 -14 -14 -20 -12 -10
-13 -8 -9 8 5 21 23 30 23 12z m607 -139 c-15 -14 -27 -21 -27 -14 0 6 5 12
10 12 6 0 10 6 10 14 0 8 6 16 13 19 23 8 21 -4 -6 -31z m-44 -541 c9 -1 17
-5 17 -11 0 -5 -25 -8 -57 -6 -69 4 -66 4 -58 15 3 6 22 8 43 6 20 -1 45 -3
55 -4z m953 -51 c0 -11 -4 -20 -8 -20 -4 0 -8 9 -8 20 0 11 4 20 8 20 4 0 8
-9 8 -20z m-624 -37 c14 -12 21 -14 30 -5 8 8 19 4 44 -14 27 -21 36 -23 54
-14 16 9 24 8 35 -4 8 -8 15 -18 15 -22 0 -5 -5 -3 -12 4 -15 15 -31 16 -22 0
5 -8 2 -9 -9 -5 -12 4 -17 1 -17 -10 0 -12 -3 -13 -14 -4 -12 10 -15 8 -18
-11 -2 -15 -13 -25 -35 -32 -25 -7 -33 -14 -33 -32 0 -13 -4 -24 -9 -24 -5 0
-11 -12 -13 -27 -2 -20 -8 -27 -20 -25 -11 2 -18 -3 -18 -14 0 -12 -6 -15 -26
-11 -15 3 -41 1 -57 -4 -20 -5 -35 -5 -43 2 -7 6 -18 8 -23 5 -5 -4 -18 2 -28
13 -10 10 -28 22 -40 25 -28 9 -31 30 -3 23 23 -6 24 -3 10 24 -9 16 -7 19 14
19 15 0 23 5 22 16 -1 15 60 44 95 44 9 0 32 13 50 30 19 16 40 30 47 30 6 0
12 6 12 14 0 8 -6 17 -12 19 -7 3 -9 6 -4 6 5 1 18 -7 28 -16z m-62 -267 c0
-3 -4 -8 -10 -11 -5 -3 -10 -1 -10 4 0 6 5 11 10 11 6 0 10 -2 10 -4z m710
-41 c0 -8 -4 -15 -10 -15 -5 0 -10 7 -10 15 0 8 5 15 10 15 6 0 10 -7 10 -15z"/>
<path d="M986 2534 c-15 -14 -26 -27 -24 -29 2 -2 17 7 33 20 15 14 26 27 24
29 -2 2 -17 -7 -33 -20z"/>
<path d="M877 2473 c-4 -3 -7 -13 -7 -20 0 -12 3 -12 15 1 8 8 15 17 15 20 0
8 -15 7 -23 -1z"/>
<path d="M4 2285 c0 -60 1 -84 3 -52 2 32 2 81 0 110 -2 29 -3 3 -3 -58z"/>
<path d="M2505 2360 c3 -5 11 -10 16 -10 6 0 7 5 4 10 -3 6 -11 10 -16 10 -6
0 -7 -4 -4 -10z"/>
<path d="M2435 2229 c9 -28 34 -59 48 -59 6 0 3 8 -5 18 -9 9 -18 26 -19 36
-2 11 -10 21 -18 24 -10 3 -11 -2 -6 -19z"/>
<path d="M820 2222 c0 -12 19 -26 26 -19 2 2 -2 10 -11 17 -9 8 -15 8 -15 2z"/>
<path d="M2350 2165 c0 -8 5 -15 10 -15 6 0 10 7 10 15 0 8 -4 15 -10 15 -5 0
-10 -7 -10 -15z"/>
<path d="M2370 2090 c0 -5 5 -10 11 -10 5 0 7 5 4 10 -3 6 -8 10 -11 10 -2 0
-4 -4 -4 -10z"/>
<path d="M2486 2035 c3 -8 11 -13 16 -12 6 1 16 -14 23 -33 8 -19 14 -28 14
-20 1 32 -12 58 -34 68 -20 9 -23 8 -19 -3z"/>
<path d="M2210 2028 c0 -9 5 -20 10 -23 13 -8 13 5 0 25 -8 13 -10 13 -10 -2z"/>
<path d="M2335 2010 c3 -5 11 -10 16 -10 6 0 7 5 4 10 -3 6 -11 10 -16 10 -6
0 -7 -4 -4 -10z"/>
<path d="M1388 1998 c9 -9 15 -9 24 0 9 9 7 12 -12 12 -19 0 -21 -3 -12 -12z"/>
<path d="M1650 1989 c-30 -11 -74 -21 -97 -22 -24 -1 -43 -5 -43 -10 0 -12
-46 -26 -69 -20 -12 3 -21 11 -21 19 0 18 -15 25 -35 18 -14 -6 -16 -15 -10
-53 4 -25 12 -52 17 -58 7 -9 7 -13 -1 -13 -16 0 -14 -30 2 -36 8 -3 14 -17
14 -32 1 -41 11 -85 22 -91 5 -3 14 -24 20 -47 17 -63 102 -143 153 -144 7 0
26 -18 42 -40 32 -43 78 -55 90 -24 4 9 5 18 4 19 -2 1 -26 13 -55 27 -52 26
-52 26 -32 44 15 14 45 21 112 27 152 13 161 14 165 26 2 6 12 11 23 11 12 0
16 5 13 14 -3 9 3 17 16 21 15 5 19 12 15 26 -6 18 -3 20 32 14 l38 -6 -32 17
c-37 19 -35 37 4 28 19 -5 24 -3 21 7 -3 8 -1 23 5 33 7 15 6 18 -5 14 -10 -4
-14 3 -15 27 -1 40 -39 95 -65 95 -11 0 -17 4 -13 9 10 17 -103 98 -129 92 -5
-1 -12 2 -15 7 -13 21 -114 21 -171 1z m120 -139 c-8 -5 -19 -10 -25 -10 -5 0
-3 5 5 10 8 5 20 10 25 10 6 0 3 -5 -5 -10z m128 -30 c7 -11 18 -20 25 -20 8
0 19 -10 25 -22 7 -13 20 -34 29 -48 l18 -24 -35 19 c-19 11 -41 26 -49 33 -7
7 -20 11 -28 8 -7 -3 -21 -1 -31 4 -9 5 -34 12 -54 15 -21 3 -38 10 -38 14 0
15 68 23 91 11 15 -9 24 -9 32 -1 8 8 6 11 -5 11 -9 0 -20 5 -23 10 -3 6 2 10
12 10 10 0 24 -9 31 -20z m-400 -188 c6 -18 -15 -14 -22 4 -4 10 -1 14 6 12 6
-2 14 -10 16 -16z m452 4 c0 -2 -7 -7 -16 -10 -8 -3 -12 -2 -9 4 6 10 25 14
25 6z m-127 -43 c-7 -2 -21 -2 -30 0 -10 3 -4 5 12 5 17 0 24 -2 18 -5z"/>
<path d="M2545 1925 c4 -16 12 -46 16 -65 6 -27 7 -22 3 20 -3 30 -10 60 -16
65 -7 7 -8 1 -3 -20z"/>
<path d="M1303 1920 c-13 -5 -23 -14 -23 -19 0 -5 -8 -12 -17 -14 -16 -4 -16
-5 -1 -6 9 0 30 10 45 24 30 26 30 28 -4 15z"/>
<path d="M2570 1781 c0 -11 5 -23 10 -26 6 -3 10 3 10 14 0 11 -4 23 -10 26
-5 3 -10 -3 -10 -14z"/>
<path d="M2578 1633 c1 -58 7 -113 13 -122 7 -11 9 18 5 98 -7 145 -22 165
-18 24z"/>
<path d="M2490 1649 c0 -8 9 -20 20 -27 11 -7 20 -10 20 -7 0 3 -9 15 -20 27
-14 16 -20 18 -20 7z"/>
<path d="M2498 1538 c4 -53 8 -66 17 -57 7 7 -7 109 -15 109 -3 0 -5 -24 -2
-52z"/>
<path d="M1540 1235 c0 -8 9 -29 20 -47 12 -19 20 -51 20 -75 0 -24 4 -43 10
-43 5 0 35 -23 66 -51 48 -43 58 -49 66 -35 6 11 1 29 -19 62 -15 25 -36 60
-47 77 -10 18 -22 34 -27 35 -5 2 -7 8 -3 13 3 5 -2 12 -10 15 -9 3 -16 11
-16 16 0 12 -39 48 -52 48 -4 0 -8 -7 -8 -15z"/>
<path d="M1280 1210 c0 -5 5 -10 11 -10 5 0 7 5 4 10 -3 6 -8 10 -11 10 -2 0
-4 -4 -4 -10z"/>
<path d="M1275 1170 c-3 -6 1 -7 9 -4 18 7 21 14 7 14 -6 0 -13 -4 -16 -10z"/>
<path d="M1745 990 c3 -5 12 -7 20 -3 21 7 19 13 -6 13 -11 0 -18 -4 -14 -10z"/>
<path d="M2531 908 c2 -140 15 -175 39 -103 12 36 5 121 -11 131 -5 3 -7 10
-4 15 8 13 -4 49 -16 49 -6 0 -9 -37 -8 -92z"/>
<path d="M1740 943 c0 -5 5 -15 10 -23 8 -12 10 -11 10 8 0 12 -4 22 -10 22
-5 0 -10 -3 -10 -7z"/>
<path d="M2502 759 c2 -6 8 -10 13 -10 5 0 11 4 13 10 2 6 -4 11 -13 11 -9 0
-15 -5 -13 -11z"/>
<path d="M2557 753 c-4 -3 -6 -22 -6 -42 l1 -36 8 40 c8 42 8 49 -3 38z"/>
<path d="M2506 679 c-3 -17 -4 -35 -1 -39 3 -5 -1 -57 -9 -117 -21 -149 -22
-191 -8 -205 8 -8 12 -9 12 -1 0 6 7 19 16 27 14 15 14 16 -3 16 -12 0 -14 3
-6 8 18 11 40 165 25 170 -19 6 -14 22 11 32 21 9 21 9 2 15 -18 5 -20 13 -17
66 3 62 -11 81 -22 28z"/>
<path d="M1788 673 c7 -3 16 -2 19 1 4 3 -2 6 -13 5 -11 0 -14 -3 -6 -6z"/>
<path d="M2551 614 c0 -11 3 -14 6 -6 3 7 2 16 -1 19 -3 4 -6 -2 -5 -13z"/>
<path d="M2462 575 c0 -16 2 -22 5 -12 2 9 2 23 0 30 -3 6 -5 -1 -5 -18z"/>
<path d="M1780 565 c0 -8 5 -15 10 -15 6 0 10 7 10 15 0 8 -4 15 -10 15 -5 0
-10 -7 -10 -15z"/>
<path d="M2557 510 c-4 -14 -6 -36 -6 -50 1 -22 2 -20 10 8 6 19 9 41 7 50 -3
12 -6 10 -11 -8z"/>
<path d="M1632 468 c6 -18 28 -21 28 -4 0 9 -7 16 -16 16 -9 0 -14 -5 -12 -12z"/>
<path d="M1745 470 c-3 -5 -1 -10 4 -10 6 0 11 5 11 10 0 6 -2 10 -4 10 -3 0
-8 -4 -11 -10z"/>
<path d="M2450 400 c0 -33 3 -60 8 -60 4 0 7 27 7 60 0 33 -3 60 -7 60 -5 0
-8 -27 -8 -60z"/>
<path d="M2541 383 c0 -25 1 -26 9 -8 12 27 12 35 0 35 -5 0 -10 -12 -9 -27z"/>
</g>
</svg>
